<svg width="15" height="16" viewBox="0 0 15 16" fill="none" xmlns="http://www.w3.org/2000/svg">
<path d="M14.125 14.2985V14.2987C14.125 14.3726 14.0971 14.4437 14.0467 14.4977C13.9964 14.5517 13.9274 14.5846 13.8537 14.5898L13.8888 15.0886L13.8545 14.5898C13.513 14.6132 13.2435 14.625 13.0417 14.625C6.32185 14.625 0.875 9.17815 0.875 2.45833C0.875 2.25601 0.886076 1.98618 0.910163 1.64663L0.91019 1.64625C0.915359 1.57259 0.948276 1.50363 1.0023 1.45329C1.05632 1.40294 1.12743 1.37497 1.20127 1.375H1.2015H3.90717C3.92213 1.51821 3.93652 1.63991 3.95085 1.73946C4.10982 2.84872 4.42998 3.92861 4.901 4.94495L3.2866 6.09852L2.95905 6.33257L3.11782 6.70253C4.21295 9.25429 6.2465 11.2878 8.79827 12.383L9.16812 12.5417L9.4022 12.2143L10.5563 10.6C11.5735 11.071 12.6542 11.3908 13.7643 11.5492C13.8621 11.5633 13.9824 11.5781 14.125 11.5929V14.2985ZM4.00123 1.27083L4.00143 1.27062L4.00123 1.27083ZM4.00134 1.375C4.00117 1.375 4.001 1.375 4.00083 1.375L4.00134 1.375Z" stroke="black"/>
</svg>
